<svg height="512" viewBox="0 0 64 64" width="512" xmlns="http://www.w3.org/2000/svg"><path d="m27 31v4a1 1 0 0 0 1 1h8a1 1 0 0 0 0-2h-7v-2h7a1 1 0 0 0 0-2h-8a1 1 0 0 0 -1 1z"/><path d="m39 24a1 1 0 0 0 0-2h-4a1 1 0 0 0 0 2z"/><path d="m29 22h-4a1 1 0 0 0 0 2h4a1 1 0 0 0 0-2z"/><path d="m56 44h-3v-2a3 3 0 0 0 -3-3h-5v-4h1a3 3 0 0 0 3-3v-2h1a3 3 0 0 0 3-2.5h1a3 3 0 0 0 3-3v-1a3 3 0 0 0 -3-3h-1a3 3 0 0 0 -3-2.5h-1a17 17 0 0 0 -33.9 0h-1.1a3 3 0 0 0 -2.95 2.5h-1.05a3 3 0 0 0 -3 3v1a3 3 0 0 0 3 3h1.05a3 3 0 0 0 2.95 2.5h5v6a1 1 0 0 0 2 0v-19h22v16h-3a1 1 0 0 0 0 2h3v4h-29a3 3 0 0 0 -3 3v2h-3a5 5 0 0 0 -5 5v12a1 1 0 0 0 2 0v-3h6v3a1 1 0 0 0 2 0v-19a1 1 0 0 1 1-1h36a1 1 0 0 1 1 1v19a1 1 0 0 0 2 0v-3h6v3a1 1 0 0 0 2 0v-12a5 5 0 0 0 -5-5zm-1-20.5v1a1 1 0 0 1 -1 1h-1v-3h1a1 1 0 0 1 1 1zm-4-2.5v6a1 1 0 0 1 -1 1h-5v-8h5a1 1 0 0 1 1 1zm-42 3.5v-1a1 1 0 0 1 1-1h1v3h-1a1 1 0 0 1 -1-1zm5 3.5a1 1 0 0 1 -1-1v-6a1 1 0 0 1 1-1h5v8zm10-13v-2h16v2zm18 0v-3a1 1 0 0 0 -1-1h-18a1 1 0 0 0 -1 1v3h-2a1 1 0 0 0 -1 1v2h-1.95a15 15 0 0 1 29.95 0h-2v-2a1 1 0 0 0 -1-1zm3 15h2v2a1 1 0 0 1 -1 1h-1zm-37 16h3v2h-5.82a3 3 0 0 1 2.82-2zm-3 10v-6h6v2h-3a1 1 0 0 0 0 2h3v2zm51-10a3 3 0 0 1 2.82 2h-5.82v-2zm-3 10v-2h3a1 1 0 0 0 0-2h-3v-2h6v6z"/><path d="m40.82 51a1 1 0 0 0 -.1-.76l-2-3.46a1 1 0 0 0 -1.36-.37l-1.46.84a7.18 7.18 0 0 0 -1-.56v-1.69a1 1 0 0 0 -1-1h-4a1 1 0 0 0 -1 1v1.68a7.3 7.3 0 0 0 -1 .56l-1.4-.84a1.05 1.05 0 0 0 -.76-.1 1 1 0 0 0 -.61.47l-2 3.46a1.06 1.06 0 0 0 -.13.77 1 1 0 0 0 .47.61l1.45.84v.56s0 .37 0 .56l-1.45.84a1 1 0 0 0 -.47.59 1.06 1.06 0 0 0 .1.76l2 3.46a1 1 0 0 0 .61.47 1.05 1.05 0 0 0 .76-.1l1.53-.83a7.3 7.3 0 0 0 1 .56v1.68a1 1 0 0 0 2 0v-2.35a1 1 0 0 0 -.67-.94 5.09 5.09 0 0 1 -1.58-.91 1 1 0 0 0 -1.15-.11l-1.16.68-1-1.74 1.09-.63a1 1 0 0 0 .47-1.09 4.65 4.65 0 0 1 0-1.82 1 1 0 0 0 -.47-1.09l-1.16-.67 1-1.74 1.16.68a1 1 0 0 0 1.15-.11 5.09 5.09 0 0 1 1.58-.91 1 1 0 0 0 .67-.94v-1.31h2v1.35a1 1 0 0 0 .66.94 4.87 4.87 0 0 1 1.58.91 1 1 0 0 0 1.15.11l1.17-.68 1 1.74-1.17.63a1 1 0 0 0 -.48 1.05 4.65 4.65 0 0 1 0 1.82 1 1 0 0 0 .48 1.13l1.17.67-1 1.74-1.17-.68a1 1 0 0 0 -1.15.11 4.87 4.87 0 0 1 -1.58.91 1 1 0 0 0 -.66.94v2.31a1 1 0 0 0 2 0v-1.68a7.18 7.18 0 0 0 1-.56l1.46.84a1 1 0 0 0 1.36-.37l2-3.46a1 1 0 0 0 .1-.76 1 1 0 0 0 -.46-.61l-1.46-.84a5.24 5.24 0 0 0 0-1.12l1.46-.84a1 1 0 0 0 .43-.6z"/><path d="m34.93 53a3 3 0 1 0 -3 3 3 3 0 0 0 3-3zm-3 1a1 1 0 1 1 1-1 1 1 0 0 1 -1 1z"/><path d="m48 43h-4a1 1 0 0 0 -1 1v12a1 1 0 0 0 1 1h4a1 1 0 0 0 1-1v-12a1 1 0 0 0 -1-1zm-3 6h2v2h-2zm0-4h2v2h-2zm2 10h-2v-2h2z"/><path d="m22 43h-6a1 1 0 0 0 -1 1v4a1 1 0 0 0 1 1h6a1 1 0 0 0 1-1v-4a1 1 0 0 0 -1-1zm-1 4h-4v-2h4z"/><path d="m19 51h-3a1 1 0 0 0 0 2h3a1 1 0 0 0 0-2z"/></svg>