<?xml version="1.0" encoding="iso-8859-1"?>
<!-- Generator: Adobe Illustrator 19.0.0, SVG Export Plug-In . SVG Version: 6.00 Build 0)  -->
<svg version="1.1" id="Layer_1" xmlns="http://www.w3.org/2000/svg" xmlns:xlink="http://www.w3.org/1999/xlink" x="0px" y="0px"
	 viewBox="0 0 512 512" style="enable-background:new 0 0 512 512;" xml:space="preserve">
<circle style="fill:#91C0F1;" cx="255.999" cy="255.998" r="255.998"/>
<path style="fill:#D7EDF3;" d="M256,512C114.615,512,0.001,397.384,0.001,255.999S114.615,0,256,0V512z"/>
<path style="fill:#A2CE86;" d="M142.83,345.053l3.763-4.164c12.842-14.212,12.595-35.91-0.567-49.827l-2.011-2.126
	c-8.623-9.118-11.989-22.007-8.927-34.176c4.016-15.959-3.08-32.639-17.363-40.814l-97.426-58.006
	C7.234,186.676,0.001,220.493,0.001,255.999c0,100.778,58.241,187.938,142.892,229.702l-9.008-109.85
	C131.987,364.756,135.284,353.404,142.83,345.053z"/>
<g>
	<path style="fill:#489B6D;" d="M436.811,74.777l-16.915,18.486c-7.363,8.047-17.639,12.812-28.537,13.235l-76.503,2.969
		c-13.56,0.527-25.973,7.756-33.121,19.291l-19.61,31.644c-8.866,14.308-8.044,32.59,2.072,46.044l12.178,16.196
		c9.245,12.295,14.206,27.278,14.127,42.66l-0.259,50.205c-0.136,26.442,23.649,46.589,49.708,42.106l55.769-9.597
		c15.328-2.637,29.349-10.278,39.875-21.727l0,0c18.726-20.368,46.625-27.139,71.444-19.946c3.247-16.279,4.961-33.111,4.961-50.344
		C512.001,185.203,483.26,121.12,436.811,74.777z"/>
	<path style="fill:#489B6D;" d="M270.438,450.438L270.438,450.438c-17.042,7.556-26.831,25.666-23.817,44.062l2.854,17.416
		c2.168,0.054,4.343,0.082,6.525,0.082c41.38,0,80.46-9.831,115.051-27.265l-4.36-6.497
		C345.611,446.832,305.017,435.108,270.438,450.438z"/>
</g>
<path style="fill:#A2CE86;" d="M145.49,101.316l51.928-29.224c8.166-4.596,14.086-12.345,16.373-21.433l12.308-48.911
	c-58.35,6.789-110.711,33.189-150.316,72.45l32.275,24.542C118.906,106.986,133.616,107.999,145.49,101.316z"/>
<g>
</g>
<g>
</g>
<g>
</g>
<g>
</g>
<g>
</g>
<g>
</g>
<g>
</g>
<g>
</g>
<g>
</g>
<g>
</g>
<g>
</g>
<g>
</g>
<g>
</g>
<g>
</g>
<g>
</g>
</svg>
