<?xml version="1.0" encoding="iso-8859-1"?>
<!-- Generator: Adobe Illustrator 16.0.0, SVG Export Plug-In . SVG Version: 6.00 Build 0)  -->
<!DOCTYPE svg PUBLIC "-//W3C//DTD SVG 1.1//EN" "http://www.w3.org/Graphics/SVG/1.1/DTD/svg11.dtd">
<svg version="1.1" id="Capa_1" xmlns="http://www.w3.org/2000/svg" xmlns:xlink="http://www.w3.org/1999/xlink" x="0px" y="0px"
	 width="116.418px" height="116.417px" viewBox="0 0 116.418 116.417" style="enable-background:new 0 0 116.418 116.417;"
	 xml:space="preserve">
<g>
	<path d="M116.272,90.388h-8.237c0.583-0.818,0.936-1.812,0.936-2.891v-58c0-2.757-2.243-5-5-5h-91.5c-2.757,0-5,2.243-5,5v58
		c0,1.104,0.37,2.113,0.977,2.941H0.145c0,0-0.552-0.535,0.5,0.517c1.75,1.159,12.375,0.95,12.375,0.95V91.9
		c0,0,91.162-0.025,91.271-0.032c2.335,0.018,10.068-0.025,11.483-0.962C116.825,89.853,116.272,90.388,116.272,90.388z
		 M64.646,89.632H51.771v-0.875h12.875V89.632z M104.584,85.882h-92.75V28.507h92.75V85.882z"/>
</g>
<g>
</g>
<g>
</g>
<g>
</g>
<g>
</g>
<g>
</g>
<g>
</g>
<g>
</g>
<g>
</g>
<g>
</g>
<g>
</g>
<g>
</g>
<g>
</g>
<g>
</g>
<g>
</g>
<g>
</g>
</svg>
