<?xml version="1.0" encoding="iso-8859-1"?>
<!-- Generator: Adobe Illustrator 16.0.0, SVG Export Plug-In . SVG Version: 6.00 Build 0)  -->
<!DOCTYPE svg PUBLIC "-//W3C//DTD SVG 1.1//EN" "http://www.w3.org/Graphics/SVG/1.1/DTD/svg11.dtd">
<svg version="1.1" id="Capa_1" xmlns="http://www.w3.org/2000/svg" xmlns:xlink="http://www.w3.org/1999/xlink" x="0px" y="0px"
	 width="96.375px" height="96.375px" viewBox="0 0 96.375 96.375" style="enable-background:new 0 0 96.375 96.375;"
	 xml:space="preserve">
<g>
	<path d="M68.009,0H28.364c-3.561,0-6.446,2.887-6.446,6.446v83.481c0,3.562,2.886,6.447,6.446,6.447H68.01
		c3.562,0,6.447-2.886,6.447-6.447V6.447C74.457,2.887,71.57,0,68.009,0z M41.625,3.813H54.75c0.311,0,0.562,0.252,0.562,0.563
		c0,0.311-0.252,0.562-0.562,0.562H41.625c-0.311,0-0.563-0.252-0.563-0.562C41.062,4.065,41.314,3.813,41.625,3.813z
		 M52.688,93.104h-9c-1.428,0-2.584-1.155-2.584-2.582c0-1.428,1.156-2.584,2.584-2.584h9c1.428,0,2.584,1.156,2.584,2.584
		C55.271,91.948,54.115,93.104,52.688,93.104z M71.727,85.9H24.648V10.476h47.079V85.9z"/>
</g>
<g>
</g>
<g>
</g>
<g>
</g>
<g>
</g>
<g>
</g>
<g>
</g>
<g>
</g>
<g>
</g>
<g>
</g>
<g>
</g>
<g>
</g>
<g>
</g>
<g>
</g>
<g>
</g>
<g>
</g>
</svg>
