<?xml version="1.0" encoding="iso-8859-1"?>
<!-- Generator: Adobe Illustrator 16.0.0, SVG Export Plug-In . SVG Version: 6.00 Build 0)  -->
<!DOCTYPE svg PUBLIC "-//W3C//DTD SVG 1.1//EN" "http://www.w3.org/Graphics/SVG/1.1/DTD/svg11.dtd">
<svg version="1.1" id="Capa_1" xmlns="http://www.w3.org/2000/svg" xmlns:xlink="http://www.w3.org/1999/xlink" x="0px" y="0px"
	 width="104.5px" height="104.5px" viewBox="0 0 104.5 104.5" style="enable-background:new 0 0 104.5 104.5;" xml:space="preserve"
	>
<g>
	<path d="M85.75,0h-67c-1.93,0-3.5,1.57-3.5,3.5V101c0,1.93,1.57,3.5,3.5,3.5h67c1.93,0,3.5-1.57,3.5-3.5V3.5
		C89.25,1.57,87.68,0,85.75,0z M50.167,4.583h4.167c0.275,0,0.5,0.224,0.5,0.5s-0.225,0.5-0.5,0.5h-4.167
		c-0.276,0-0.5-0.224-0.5-0.5S49.89,4.583,50.167,4.583z M52.25,101.917c-1.473,0-2.667-1.194-2.667-2.667s1.194-2.667,2.667-2.667
		c1.473,0,2.667,1.194,2.667,2.667S53.723,101.917,52.25,101.917z M84.75,93.75H19.601v-84H84.75V93.75z"/>
</g>
<g>
</g>
<g>
</g>
<g>
</g>
<g>
</g>
<g>
</g>
<g>
</g>
<g>
</g>
<g>
</g>
<g>
</g>
<g>
</g>
<g>
</g>
<g>
</g>
<g>
</g>
<g>
</g>
<g>
</g>
</svg>
